<?xml version="1.0"?>
<svg xmlns="http://www.w3.org/2000/svg" xmlns:xlink="http://www.w3.org/1999/xlink" xmlns:svgjs="http://svgjs.com/svgjs" version="1.1" width="512" height="512" x="0" y="0" viewBox="0 0 512 512" style="enable-background:new 0 0 512 512" xml:space="preserve" class=""><g><g xmlns="http://www.w3.org/2000/svg"><g><path d="m486.455 385.017c-15.546-17.033-36.421-27.937-59.101-30.982l-16.79-16.525c-3.901-3.841-9.69-4.948-14.741-2.825-1.005.422-2.259.897-3.784 1.391v-18.181c31.994-12.463 56.354-40.313 63.949-74.413 51.557 19.397 62.186-89.559 14.363-91.851 1.124-6.649 1.936-14.085 2.038-21.91 8.403-2.834 15.116-8.099 19.171-15.124 12.838-22.493-4.789-50.588-26.742-62.669-.51-.294-1.029-.584-1.553-.869-1.596-8.685-6.811-16.859-14.926-23.288-3.248-2.573-7.963-2.023-10.536 1.222-2.572 3.247-2.025 7.963 1.222 10.536 5.783 4.581 9.229 10.211 9.704 15.852.278 3.322 2.296 6.297 5.271 7.767 1.138.561 2.257 1.158 3.321 1.772 24.679 13.731 34.036 45.215 7.442 51.38-4.375.979-7.481 4.964-7.385 9.47.491 23.404-6.83 44.289-8.295 47.437-1.499 3.228-2.703 8.235-3.605 13.06-4.204-3.757-7.464-7.16-8.51-9.011 2.12-20.94 3.369-56.622-10.599-68.997-4.715-4.178-10.658-5.591-17.193-4.097-6.051 1.389-11.303 2.696-15.937 3.85-38.665 10.787-57.27 5.684-95.006-3.85-6.533-1.498-12.477-.081-17.193 4.097-14.001 12.405-12.713 48.226-10.584 69.146-.903 1.818-3.929 5.246-7.861 9.042-1.263-4.88-2.788-10.048-4.265-13.229-.294-.658-24.97-69.188 19.598-103.691 2.691-2.082 4.068-5.478 3.593-8.865-2.542-18.129 20.73-37.79 51.876-43.828 23.598-4.576 46.389-.354 58.068 10.749 2.125 2.02 5.006 2.94 7.897 2.521 3.729-.538 7.582-.702 11.452-.48 9.925.233 10.721-14.105.848-14.976-3.98-.226-7.953-.13-11.845.285-15.618-13.229-41.834-18.143-69.276-12.825-37.928 7.353-65.301 32.188-64.169 57.465-25.09 19.571-34.38 58.172-28.592 92.141-46.736 3.651-35.808 110.964 15.251 91.795 4.187 19.192 13.766 36.82 27.988 51.045 10.427 10.43 22.682 18.365 36.041 23.509v18.009c-1.522-.493-2.774-.968-3.777-1.389-5.056-2.12-10.84-1.012-14.781 2.868l-3.576 3.576c-5.378-16.232-12.078-29.823-19.763-37.9-5.669-5.958-11.779-8.978-18.163-8.978-16.354 0-28.555 6.552-36.649 13.065-32.304-23.328-99.164-23.327-131.466.002-8.136-6.549-20.322-13.067-36.646-13.067-13.502 0-25.356 13.145-35.233 39.069-1.475 3.871.468 8.204 4.339 9.678 3.77 1.466 8.207-.429 9.679-4.339 8.27-21.707 16.597-29.409 21.216-29.409 10.538 0 18.8 3.702 24.784 7.9-26.377 25.861-28.402 73.471-9.91 106.798-9.901 15.044-26.39 22.533-38.87 26.201-3.012.885-6.209.349-8.774-1.473-2.537-1.802-4.08-4.608-4.233-7.7-1.022-20.519 1.273-45.772 6.297-69.281.866-4.051-1.717-8.036-5.767-8.901-4.052-.869-8.036 1.716-8.902 5.766-5.285 24.73-7.694 51.397-6.61 73.162.384 7.711 4.222 14.702 10.529 19.183 6.348 4.516 14.304 5.815 21.689 3.634 5.435-1.597 11.515-3.823 17.648-6.909-2.668 14.118-2.994 30.092-.95 47.734.438 3.783 3.642 6.636 7.45 6.636h437.882c9.648 0 17.497-7.85 17.497-17.499v-43.568c0-24.456-9.072-47.865-25.545-65.914zm-18.953-218.517c30.878.142 20.526 80.62-9.261 61.27.152-2.296.237-4.61.237-6.944v-19.993c.767-6.841 2.538-17.714 4.207-21.306.855-1.839 2.608-6.475 4.392-13.011.142-.005.283-.016.425-.016zm-225.905 64.226c-21.649-.109-27.617-62.534-.924-64.193 1.729 6.992 3.441 11.692 4.044 12.989 1.843 3.969 4.53 15.05 5.914 21.631v20.034c0 2.209.076 4.406.212 6.592-2.405 1.601-5.53 2.947-9.246 2.947zm24.035-9.54v-17.27c20.847-17.403 20.096-24.685 19.838-27.143-2.968-28.225-.699-51.783 5.517-57.291.692-.614 1.621-1.226 3.892-.703 5.915 1.356 11.095 2.646 15.665 3.785 28.901 8.492 57.427 8.489 86.32 0 4.57-1.139 9.75-2.429 15.664-3.785 2.272-.522 3.2.089 3.892.703 6.216 5.507 8.484 29.066 5.517 57.29-.263 2.502-1.026 9.912 21.543 27.375v16.678c0 49.144-39.974 89.126-89.108 89.126-47.697.987-89.729-41.07-88.74-88.765zm66.428 101.367c14.507 3.22 30.551 3.181 44.98-.096v16.882c-11.207 1.821-33.775 1.82-44.98-.001zm-23.678 26.331c19.239 8.988 73.263 8.938 92.352-.004l10.861 10.69c-23.955 13.868-84.417 14.948-111.033 1.445-.279-1.158-.565-2.309-.856-3.453zm-44.087-35.317c17.61 18.508 32.046 80.426 29.706 127.41-.154 3.092-1.697 5.898-4.233 7.7-2.564 1.82-5.762 2.356-8.774 1.473-12.406-3.646-28.94-11.151-38.858-26.228 18.48-33.327 16.447-80.921-9.921-106.77 5.963-4.182 14.231-7.901 24.784-7.901 2.635-.001 5.422 2.346 7.296 4.316zm-109.677-8.814c25.485 0 84.759 6.955 84.759 71.377 0 18.066-6.329 36.514-17.96 52.907-6.582-11.331-17.827-21.444-31.844-28.066 7.221-42.676-77.136-42.66-69.91-.002-14.044 6.621-25.289 16.708-31.863 28.042-11.62-16.383-17.94-34.809-17.94-52.881 0-64.422 59.274-71.377 84.758-71.377zm-27.755 109.418c5.34 5.856 12.795 10.263 20.255 12.117v16.895l-3.552 2.061c-6.139 3.56-13.905 3.293-19.784-.686-8.386-5.3-16.442 6.618-8.406 12.423 10.622 7.187 24.644 7.661 35.717 1.237l3.527-2.047 3.519 2.043c11.087 6.432 25.107 5.948 35.721-1.234 3.431-2.322 4.33-6.984 2.008-10.414s-6.984-4.329-10.415-2.009c-5.88 3.979-13.647 4.246-19.785.685l-3.55-2.06v-16.892c7.462-1.855 14.919-6.264 20.259-12.122 17.603 8.108 30.459 23.493 30.459 37.001 0 20.34-31.362 27.556-58.219 27.556s-58.217-7.218-58.217-27.557c0-13.577 12.823-28.88 30.463-36.997zm27.755-1.914c-8.997 0-20.483-8.999-20.483-16.05 0-8.019 10.553-12.346 20.483-12.346s20.484 4.327 20.484 12.346c0 7.05-11.486 16.05-20.484 16.05zm-91.203 84.744c-1.674-20.536.313-38.141 5.924-52.406.039-.099.066-.2.101-.3 2.143-2.017 4.198-4.199 6.13-6.563 1.946 2.743 4.023 5.431 6.225 8.058-3.694 30.684 25.19 47.552 72.824 47.933 47.64-.382 76.513-17.247 72.822-47.933 2.202-2.629 4.278-5.32 6.226-8.066 1.935 2.366 3.988 4.556 6.133 6.574.034.099.061.198.1.296 5.611 14.265 7.598 31.87 5.924 52.406h-182.409zm433.585-2.5c0 1.379-1.12 2.5-2.497 2.5h-233.646c1.079-14.357.499-27.523-1.741-39.374 6.148 3.095 12.234 5.321 17.648 6.912 2.357.693 4.759 1.034 7.143 1.034 5.151-.001 10.216-1.593 14.547-4.668 6.307-4.48 10.145-11.472 10.529-19.183.938-18.829-.831-41.457-4.755-63.234 37.634 13.523 100.138 6.638 121.138-9.589 41.048 5.476 71.634 40.206 71.634 82.034z" fill="#082932" data-original="#000000" class=""/><path d="m346.659 246.158c5.975 1.56 9.812 1.56 15.787 0 4.008-1.047 6.408-5.144 5.361-9.152-1.046-4.007-5.142-6.407-9.152-5.361-3.489.912-4.716.912-8.205 0-4.008-1.05-8.106 1.353-9.152 5.361-1.046 4.007 1.354 8.105 5.361 9.152z" fill="#082932" data-original="#000000" class=""/><path d="m328.372 167.254c3.9 1.051 8.12-1.322 9.151-5.361 1.047-4.008-1.354-8.105-5.361-9.152-11.34-2.961-18.254-2.961-29.594 0-4.008 1.047-6.408 5.144-5.361 9.152 1.046 4.007 5.142 6.411 9.151 5.361 8.951-2.338 13.064-2.338 22.014 0z" fill="#082932" data-original="#000000" class=""/><path d="m380.734 167.254c8.95-2.338 13.064-2.338 22.014 0 3.9 1.051 8.12-1.322 9.152-5.361 1.046-4.008-1.354-8.105-5.362-9.152-11.339-2.961-18.255-2.961-29.595 0-4.008 1.047-6.408 5.144-5.361 9.152 1.047 4.006 5.143 6.411 9.152 5.361z" fill="#082932" data-original="#000000" class=""/><path d="m377.045 270.392c8.514-5.091 1.509-17.66-7.297-13.105-9.374 5.218-21.017 5.218-30.389 0-3.618-2.015-8.186-.715-10.201 2.904s-.715 8.186 2.904 10.201c13.873 7.724 31.11 7.724 44.983 0z" fill="#082932" data-original="#000000" class=""/><path d="m312.567 187.425c-4.142 0-7.5 3.357-7.5 7.5v6c.307 9.916 14.696 9.909 15 0v-6c0-4.143-3.358-7.5-7.5-7.5z" fill="#082932" data-original="#000000" class=""/><path d="m396.539 187.425c-4.142 0-7.5 3.357-7.5 7.5v6c.307 9.916 14.696 9.909 15 0v-6c0-4.143-3.358-7.5-7.5-7.5z" fill="#082932" data-original="#000000" class=""/><path d="m112.329 363.806c1.48 0 2.975-.437 4.28-1.347 4.398-3.064 10.307-3.062 14.706 0 3.399 2.368 8.074 1.531 10.441-1.868 2.367-3.398 1.531-8.073-1.868-10.44-9.527-6.634-22.328-6.634-31.853 0-3.399 2.367-4.235 7.042-1.868 10.441 1.459 2.093 3.791 3.214 6.162 3.214z" fill="#082932" data-original="#000000" class=""/><path d="m177.922 362.46c4.398-3.062 10.309-3.062 14.706 0 3.359 2.351 8.059 1.555 10.441-1.868 2.367-3.398 1.531-8.073-1.868-10.44-9.526-6.634-22.326-6.634-31.853 0-3.399 2.367-4.235 7.042-1.868 10.44 2.369 3.401 7.043 4.234 10.442 1.868z" fill="#082932" data-original="#000000" class=""/></g></g></g></svg>
