<?xml version="1.0" standalone="no"?>
<!DOCTYPE svg PUBLIC "-//W3C//DTD SVG 20010904//EN"
 "http://www.w3.org/TR/2001/REC-SVG-20010904/DTD/svg10.dtd">
<svg version="1.0" xmlns="http://www.w3.org/2000/svg"
 width="512.000000pt" height="512.000000pt" viewBox="0 0 512.000000 512.000000"
 preserveAspectRatio="xMidYMid meet">

<g transform="translate(0.000000,512.000000) scale(0.100000,-0.100000)"
fill="#000000" stroke="none">
<path d="M4655 5107 c-65 -22 -97 -43 -146 -94 -25 -26 -267 -319 -538 -650
-314 -384 -500 -621 -516 -655 -30 -64 -34 -159 -9 -231 21 -61 94 -141 157
-174 61 -30 148 -40 214 -24 87 22 133 62 284 247 l142 175 41 -6 c141 -18
519 -45 561 -40 153 20 268 153 268 310 0 171 -118 294 -300 315 -41 4 -76 10
-78 12 -2 2 57 78 131 168 162 196 186 242 186 345 0 125 -67 232 -180 285
-57 28 -160 35 -217 17z m161 -218 c36 -34 48 -80 31 -121 -8 -18 -90 -125
-181 -237 -92 -111 -183 -223 -202 -248 -43 -57 -45 -100 -6 -143 27 -31 28
-31 197 -46 94 -9 181 -21 194 -27 61 -30 84 -112 45 -164 -42 -57 -45 -57
-388 -27 -171 15 -324 24 -339 21 -18 -5 -72 -63 -181 -196 -86 -104 -168
-199 -183 -211 -22 -18 -37 -21 -73 -17 -62 7 -100 50 -100 112 0 44 7 52 516
675 283 346 527 637 542 645 36 20 98 13 128 -16z"/>
<path d="M2755 4726 c-36 -36 -42 -73 -19 -115 13 -24 31 -40 54 -48 37 -13
948 -19 1009 -7 78 16 109 109 54 166 l-27 28 -523 0 -524 0 -24 -24z"/>
<path d="M2310 4243 c-56 -20 -83 -89 -56 -141 23 -45 43 -52 151 -52 93 0 98
1 126 29 49 50 32 138 -32 160 -33 11 -162 14 -189 4z"/>
<path d="M2843 4235 c-61 -26 -74 -106 -24 -156 l29 -29 247 0 247 0 29 29
c51 51 33 137 -33 160 -48 17 -455 14 -495 -4z"/>
<path d="M2122 3700 c-96 -14 -191 -52 -309 -121 -149 -89 -184 -117 -239
-195 -68 -95 -97 -186 -98 -304 0 -105 15 -164 67 -263 16 -31 28 -59 26 -61
-2 -2 -60 -37 -129 -76 -69 -40 -137 -84 -152 -98 -56 -51 -26 -150 50 -165
32 -7 67 9 233 106 l117 68 45 -34 c72 -55 128 -72 237 -72 82 0 103 4 152 27
32 15 75 40 95 57 l38 30 81 -31 81 -31 12 -51 c25 -114 114 -222 228 -278 55
-27 80 -33 153 -36 102 -5 179 8 425 75 192 51 233 52 291 8 43 -33 64 -78 64
-140 0 -99 -37 -131 -231 -201 -250 -91 -426 -122 -734 -131 -226 -6 -369 9
-498 52 -39 14 -80 25 -89 25 -31 0 -69 -23 -84 -51 -30 -59 -9 -111 57 -145
44 -22 44 -22 19 -32 -14 -5 -168 -66 -343 -136 -175 -69 -322 -124 -327 -121
-4 3 -11 21 -15 41 -15 81 -72 118 -140 90 -55 -23 -68 -63 -48 -151 11 -48
16 -119 16 -225 0 -136 -3 -167 -26 -255 -15 -55 -49 -145 -77 -200 -54 -110
-268 -416 -313 -449 -42 -31 -130 -29 -176 3 -35 25 -70 90 -71 129 0 13 33
112 74 220 82 218 91 262 76 342 -17 89 -48 139 -151 240 -73 72 -103 111
-127 161 -106 224 -33 472 182 613 47 31 90 65 96 76 26 48 4 111 -47 135 -44
21 -69 15 -153 -39 -89 -58 -135 -100 -186 -169 -23 -31 -45 -54 -48 -49 -3 5
-10 47 -16 94 -21 176 25 332 130 438 68 68 78 122 30 170 -50 50 -105 38
-184 -43 -99 -102 -157 -232 -176 -396 -18 -163 20 -365 91 -476 30 -47 32
-57 35 -150 2 -116 22 -203 69 -298 38 -77 116 -175 180 -227 102 -83 103
-121 5 -370 -71 -177 -74 -189 -74 -270 0 -72 4 -94 26 -142 37 -79 98 -142
177 -181 58 -28 75 -32 151 -32 72 0 94 4 146 28 35 16 80 48 106 75 64 66
261 347 313 445 83 156 145 390 145 549 l0 56 528 210 527 210 200 5 c197 6
379 27 535 63 88 20 342 106 417 141 68 32 134 98 170 171 25 52 28 67 28 162
0 96 -3 110 -29 163 -58 115 -179 196 -306 205 -68 5 -64 6 -365 -74 -164 -44
-286 -54 -335 -29 -84 42 -130 113 -130 198 0 80 24 109 160 190 184 108 218
134 265 198 105 142 113 327 22 489 -97 175 -146 216 -257 214 -49 0 -79 -7
-120 -27 -71 -35 -111 -34 -206 4 -127 51 -242 66 -362 49z m247 -221 c158
-57 175 -61 246 -56 44 2 94 14 135 31 l65 26 22 -27 c12 -15 38 -58 58 -96
41 -81 47 -155 16 -222 -29 -62 -56 -85 -214 -178 -144 -86 -205 -135 -233
-189 -17 -32 -16 -32 -69 -9 l-39 17 -1 90 c-2 115 -11 138 -164 398 -79 133
-119 212 -113 218 32 32 200 30 291 -3z m-269 -459 c49 -84 55 -101 55 -150
-1 -66 -22 -109 -78 -153 -71 -58 -190 -46 -253 25 -28 31 -88 132 -121 204
-39 84 -39 186 -1 264 31 64 74 111 137 152 l45 28 81 -138 c44 -75 105 -180
135 -232z"/>
<path d="M923 2375 c-39 -17 -53 -42 -53 -93 0 -33 6 -45 31 -66 19 -17 43
-26 64 -26 21 0 45 9 64 26 25 21 31 33 31 66 0 52 -14 77 -55 94 -41 17 -42
17 -82 -1z"/>
</g>
</svg>
