<?xml version="1.0"?>
<svg xmlns="http://www.w3.org/2000/svg" xmlns:xlink="http://www.w3.org/1999/xlink" xmlns:svgjs="http://svgjs.com/svgjs" version="1.1" width="512" height="512" x="0" y="0" viewBox="0 0 512 512" style="enable-background:new 0 0 512 512" xml:space="preserve" class=""><g><g xmlns="http://www.w3.org/2000/svg"><path d="m448 55.5h-303.04c-4.69 0-8.5 3.81-8.5 8.5v135.03c-5.39-2.9-11.77-2.98-16.85-.18l-49.59-49.58c-3.32-3.32-8.7-3.32-12.02 0s-3.32 8.7 0 12.02l49.44 49.43c-1.59 2.57-2.46 5.57-2.46 8.74 0 4.86 2.05 9.69 5.63 13.26l.96.96c-4.11 4.13-6.37 9.75-6.37 15.83 0 6.82 2.89 13.62 7.94 18.65l23.46 23.42c-.08.48-.13.96-.13 1.46v154.96c0 4.69 3.81 8.5 8.5 8.5h303.03c4.69 0 8.5-3.81 8.5-8.5v-384c0-4.69-3.81-8.5-8.5-8.5zm-325.81 194.01c0-1.1.25-2.67 1.44-3.85l5.97-5.96c1.6-1.59 2.5-3.76 2.5-6.02s-.9-4.42-2.5-6.02l-6.99-6.97c-.45-.45-.6-.89-.63-1.12l5.81-5.8c.24.03.69.17 1.16.64l6.99 6.97c3.32 3.31 8.69 3.31 12.01 0l5.97-5.96c2.41-2.4 7.33-1.7 10.55 1.51l13.98 13.95-20.77 20.47c-3.34 3.29-3.38 8.68-.09 12.02 1.66 1.69 3.86 2.53 6.05 2.53 2.15 0 4.31-.81 5.97-2.45l20.87-20.57 8.33 8.31-10.72 10.7c-3.32 3.32-3.33 8.7-.01 12.02 1.66 1.66 3.84 2.5 6.02 2.5 2.17 0 4.35-.83 6-2.48l10.74-10.72 8.31 8.29-20.55 20.5c-3.32 3.32-3.33 8.7-.01 12.02 1.66 1.66 3.84 2.5 6.02 2.5 2.17 0 4.34-.83 6-2.48l20.57-20.53 17.38 17.34c3.32 3.31 8.69 3.31 12.01 0l8.67-8.65 5.54 5.53-68.65 68.51-5.54-5.53 8.65-8.63c1.6-1.59 2.5-3.76 2.5-6.02s-.9-4.42-2.5-6.02l-84.09-83.92c-1.88-1.85-2.96-4.27-2.96-6.61zm151.22 119.09-22.79-22.74 3.72-3.72 22.81 22.77c3.32 3.31 8.69 3.31 12.01 0l17.88-17.85 4.27 4.26.07.07-51.5 51.39c-.03-.03-.07-.06-.1-.09l-4.25-4.24 17.86-17.82c1.6-1.59 2.5-3.76 2.5-6.02s-.88-4.42-2.48-6.01zm166.09 70.9h-286.04v-131.08l37.74 37.66-4.87 4.86c-2.52 2.52-3.92 5.92-3.92 9.56 0 3.88 1.63 7.73 4.46 10.55l13.25 13.22c1.66 1.66 3.83 2.48 6 2.48s4.35-.83 6-2.48l26.46-26.41 16.78 16.75-17.86 17.82c-1.6 1.59-2.5 3.76-2.5 6.02s.9 4.42 2.5 6.02l10.27 10.25c3.48 3.47 8 5.23 12.43 5.23 4.06 0 8.03-1.48 11.02-4.46l52.99-52.88c2.87-2.86 4.44-6.71 4.44-10.85 0-4.54-1.95-9.08-5.34-12.47l-10.27-10.25c-3.32-3.31-8.69-3.31-12.01 0l-17.88 17.85-16.78-16.75 26.44-26.38c1.6-1.59 2.5-3.76 2.5-6.02s-.9-4.42-2.5-6.02l-13.25-13.22c-5.69-5.68-14.71-5.93-20.11-.54l-4.89 4.88-78.09-77.93c-6.43-6.41-15.17-8.96-23.02-7.51v-124.9h286.05z" fill="#082932" data-original="#000000"/><path d="m339.03 318.74c0 12.51 5.27 23.8 13.7 31.81-.2.73-.32 1.49-.32 2.28v57.89c0 3.26 1.87 6.23 4.8 7.65s6.43 1.03 8.98-.99l16.83-13.35 16.83 13.35c1.53 1.22 3.4 1.84 5.28 1.84 1.26 0 2.52-.28 3.7-.85 2.94-1.42 4.8-4.39 4.8-7.65v-57.89c0-.79-.12-1.55-.32-2.28 8.43-8.01 13.7-19.3 13.7-31.81 0-24.22-19.74-43.93-44-43.93s-43.98 19.71-43.98 43.93zm57.61 74.39-8.33-6.61c-3.09-2.46-7.47-2.46-10.56 0l-8.33 6.61v-32.62c4.29 1.4 8.86 2.16 13.62 2.16s9.33-.77 13.62-2.16v32.62zm13.39-74.39c0 14.85-12.11 26.93-27 26.93s-27-12.08-27-26.93 12.11-26.93 27-26.93 27 12.08 27 26.93z" fill="#082932" data-original="#000000"/><path d="m248.02 123.98h96.91c4.69 0 8.5-3.81 8.5-8.5s-3.81-8.5-8.5-8.5h-96.91c-4.69 0-8.5 3.81-8.5 8.5s3.81 8.5 8.5 8.5z" fill="#082932" data-original="#000000"/><path d="m191.79 183.21h209.38c4.69 0 8.5-3.81 8.5-8.5s-3.81-8.5-8.5-8.5h-209.38c-4.69 0-8.5 3.81-8.5 8.5s3.81 8.5 8.5 8.5z" fill="#082932" data-original="#000000"/><path d="m409.67 225.45c0-4.69-3.81-8.5-8.5-8.5h-176.17c-4.69 0-8.5 3.81-8.5 8.5s3.81 8.5 8.5 8.5h176.17c4.69 0 8.5-3.81 8.5-8.5z" fill="#082932" data-original="#000000"/></g></g></svg>
